<svg xmlns="http://www.w3.org/2000/svg" fill="none" viewBox="0 0 801 802"><defs><clipPath id="a" class="frame-clip frame-clip-def"><rect width="801" height="802" rx="0" ry="0"/></clipPath></defs><g clip-path="url(#a)"><g class="fills"><rect width="801" height="802" class="frame-background" rx="0" ry="0" style="fill:#fff;fill-opacity:.03"/></g><g xmlns:xlink="http://www.w3.org/1999/xlink" xml:space="preserve" class="frame-children" style="fill:#fff"><g class="fills"><path d="M273.369 89.389c2.169 28.535 4.534 57.043 6.703 85.579.779 10.263-.334 20.331-7.509 29.259-.084.111 0 .333.027.5 14.657-1.808 29.287-3.977 44.083-6.369-8.677-7.704-11.041-13.739-11.931-22.695-2.17-21.694-4.117-43.443-6.119-65.165-.028-.417.055-.862.111-1.78.89.863 1.502 1.391 2.03 1.947 16.688 17.3 33.626 34.043 50.73 50.508 10.374 9.734 22.028 17.661 36.49 21.833 8.539 2.419 17.383 3.643 26.756 3.727-.195-1.28-.334-2.337-.501-3.366-5.59-37.602-11.18-75.205-16.715-112.835-1.279-8.761-.306-17.105 5.229-24.141.194-.223.25-.529.5-1.002-13.822.863-27.339 1.975-40.94 3.171 10.124 11.653 10.819 12.683 12.655 25.448 2.781 19.358 5.285 38.771 7.899 58.156.056.39 0 .807-.028 1.641-1.029-.89-1.724-1.446-2.364-2.058-25.588-24.558-50.619-49.534-75.122-75.705-1.474-1.614-2.809-2.225-5.034-2.031a845.237 845.237 0 0 1-39.438 2.67c-.862.028-1.752.167-2.92.278.584.668.862 1.057 1.196 1.363 9.261 8.483 13.294 18.996 14.212 31.067Z" class="st0"/></g><g class="fills"><path d="M145.682 202.753c-4.422-4.756-6.091-9.957-4.339-15.464 2.809-8.817 5.646-17.633 8.594-26.394.223-.64 1.613-1.029 2.475-.946 3.95.417 7.927 1.001 11.876 1.419 10.903 1.14 21.778 1.807 32.903 2.058 3.365 9.178 6.758 18.189 10.04 27.172 2.42 6.592.612 12.127-4.561 16.632-.918.807-1.808 1.641-3.06 2.809 23.001-.111 45.335-1.835 68.614-4.644-10.958-7.176-16.549-17.327-21.444-28.035-16.965-38.187-33.597-77.458-49.589-118.12-.946-2.42-2.003-3.171-4.339-3.337a331.745 331.745 0 0 1-45.668-6.648 115.5 115.5 0 0 1-2.698-.612c.028.473 0 .585.056.64.25.362.472.751.778 1.057 7.565 7.676 8.4 15.269 5.618 23.724-10.846 32.402-21.832 64.664-32.985 96.704-3.588 10.18-8.01 19.608-16.243 25.615-.167.112-.167.473-.222.696 15.853 4.644 31.678 7.871 47.921 9.957-1.474-1.669-2.559-3.032-3.727-4.283Zm25.059-109.498a3099.868 3099.868 0 0 0 17.661 47.809c-10.569-.556-20.86-1.501-31.595-3.003a6573.773 6573.773 0 0 0 13.934-44.806Z" class="st0"/></g><g class="fills"><path d="M449.311 66.11c2.253.083 2.169 1.641 2.42 2.948 4.45 24.447 8.927 48.866 13.35 73.314 1.056 5.812 2.03 11.625 2.836 17.466.835 5.952-.222 11.459-5.395 15.797-.223.167-.278.501-.445.835 20.609-2.031 41.107-3.282 62.077-3.393-1.891-1.697-3.615-3.115-5.173-4.645-5.813-5.618-8.344-12.071-9.734-18.69-5.451-25.504-10.708-51.008-16.048-76.512-.417-1.975-.834-3.922-1.418-6.731 5.673.083 11.097.056 16.659.556 6.62.584 12.738 3.004 17.411 8.622.25.278.64.501 1.168.89.25-9.623.473-18.94.668-27.757-37.214-5.117-73.37-5.673-109.582-4.7a5058.694 5058.694 0 0 1-3.393 31.706c3.282-2.197 6.091-4.283 9.15-6.007 7.566-4.367 16.549-4.005 25.449-3.699Z" class="st0"/></g><g class="fills"><path d="M548.685 69.225c7.342 29.342 14.657 58.656 21.888 87.971.724 2.976.835 5.896.835 8.761 0 3.671-2.531 6.118-6.008 8.427 21.472 1.529 42.776 4.255 65.415 8.816-7.759-4.867-11.653-9.929-13.656-15.324-1.196-3.254-2.28-6.508-3.198-9.735-7.009-24.892-13.962-49.784-20.915-74.676-.668-2.364-1.057-4.673-1.697-7.037-1.613-5.924-.389-10.207 5.007-11.959.083-.028-.056-.251-.112-.445a489.023 489.023 0 0 0-60.603-13.712c7.899 5.73 11.375 12.238 13.044 18.913Z" class="st0"/></g><g class="fills"><path d="M362.898 289.945c-1.196 15.018-2.365 30.037-3.7 45.084-.611 6.869-2.864 13.405-10.096 18.773-.083.056-.027.306-.055.501 20.581-3.004 41.107-5.145 61.299-5.59-1.78-2.281-4.256-4.284-5.174-6.842-1.223-3.421-1.946-7.232-1.696-10.931.862-13.155 2.253-26.338 3.449-39.493.055-.473.167-.946.361-1.975.862 1.251 1.391 2.002 1.864 2.781 4.867 8.038 9.567 16.243 14.462 24.447 4.561 7.649 9.067 15.464 14.073 23.085 4.2 6.397 11.292 9.873 19.525 11.236 12.766 2.086 25.476 4.589 37.992 8.427.945.278 1.919.362 2.252.445-4.172-7.537-8.705-14.74-12.515-22.027-12.071-22.974-24.169-44.834-36.796-65.693-1.28-2.114-1.28-3.31.779-5.035 14.462-12.126 28.758-23.501 43.081-33.792 4.339-3.087 8.622-6.118 13.183-9.206-19.441-5.507-38.77-8.482-58.434-9.817 1.975 1.807 3.95 3.365 5.535 5.173 3.671 4.227 3.588 8.844-.028 12.96a43.415 43.415 0 0 1-3.894 3.95 1006.842 1006.842 0 0 0-38.186 36.49c-.39.389-.473.973-.696 1.474-.305-.223-.639-.445-.945-.668.055-.584.111-1.168.167-1.78 1.196-12.988 2.392-26.004 3.56-38.993.667-7.398 3.615-14.101 11.236-18.996.083-.055.028-.278.056-.528-21.416-.084-42.943 1.557-65.527 4.227 6.62 3.338 8.845 8.427 9.012 14.491.083 2.753-.056 5.534-.279 8.343-1.251 16.465-2.53 32.958-3.865 49.479Z" class="st0"/></g><g class="fills"><path d="M269.865 308.496c-.445.278-.89.584-2.058 1.335 9.762-.557 18.884-2.448 28.035-5.563 25.031-8.483 46.307-27.423 43.999-52.454-1.279-13.601-9.707-22.083-25.17-24.503-10.625-1.669-22.056.111-33.348 1.808-21.916 3.365-43.804 6.897-65.609 9.206-.723.083-1.474.278-2.782.528 4.923 2.614 7.955 6.008 8.706 10.652.64 3.95.751 8.066.612 12.154-.779 22.834-1.725 45.668-2.615 68.503-.389 9.678-.778 19.357-1.307 29.036-.389 7.036-2.364 13.795-9.317 19.218-.084.056 0 .306 0 .445 20.609-2.725 41.302-6.536 62.439-10.624-.918-.834-1.585-1.419-2.225-2.03-5.479-5.201-6.981-12.321-6.619-20.164 1.474-30.455 3.059-60.966 4.616-91.448.028-.779.195-1.558.306-2.503 7.148-1.252 13.378-.807 18.162 2.67 5.924 4.311 7.176 10.847 7.064 18.022-.222 14.352-7.12 26.478-22.889 35.712Z" class="st0"/></g><g class="fills"><path d="M167.654 382.672c-.39-.529-.557-.835-.779-1.057-6.202-6.202-8.622-13.934-8.483-22.417.584-30.51 1.28-60.993 1.864-91.503.027-1.836 1.029-2.42 2.753-2.503 4.979-.251 9.985-.724 14.991-.89 7.509-.279 13.767 1.446 17.411 7.314.055.084.333.056.806.139 3.004-11.069 6.036-22.138 8.9-32.568-40.856 4.005-81.073 3.171-121.429-9.178-3.143 10.151-6.23 20.136-9.29 30.065 12.544-4.7 26.589-2.114 41.525 2.197 0 .946-.028 1.558-.028 2.197-.334 31.29-.668 62.579-1.057 93.84-.028 2.892-.362 5.785-.835 8.594-.778 4.645-2.892 8.538-7.147 10.847-.529.278-1.252.278-1.864.417.251.278.501.584.751.862 20.526 3.56 41.024 4.506 61.911 3.644Z" class="st0"/></g><g class="fills"><path d="M709.886 561.534c-20.442-26.283-40.217-53.595-59.824-81.074-1.947-2.753-2.281-4.394-.585-7.036 11.71-18.746 22.751-38.771 33.375-60.075 3.115-6.508 6.147-13.128 9.345-20.303-19.607 4.922-39.187 7.37-59.157 8.26 2.448 2.197 4.84 4.005 6.898 6.202 4.811 5.145 6.007 11.459 3.476 17.772a50.076 50.076 0 0 1-2.892 6.036c-10.124 17.382-20.609 33.903-31.373 49.756-.333.473-.278 1.252-.417 1.919-.389-.334-.806-.695-1.196-1.029-.083-.779-.139-1.585-.222-2.364-1.669-17.41-3.338-34.821-5.007-52.204-.945-9.957.585-18.634 7.204-25.115.083-.083-.028-.389-.056-.695-21.749-.306-43.61-2.03-66.472-4.589 7.371 6.091 10.486 13.211 11.682 21.193.528 3.616.862 7.204 1.112 10.791a24286.71 24286.71 0 0 1 4.255 63.663c1.252 19.302 2.559 38.604 3.672 57.906.5 8.789-1.029 16.52-8.789 20.442-.083.056 0 .362.028.612 24.336 5.173 48.672 9.651 72.646 12.682-2.698-3.421-6.119-6.647-7.843-10.318-2.281-4.895-4.033-10.235-4.617-15.214-2.086-17.688-3.588-35.294-5.284-52.927-.056-.612-.028-1.251-.056-2.642 1.252 1.836 2.03 2.92 2.726 4.033 7.398 11.681 14.74 23.39 22.417 34.96 7.259 10.903 14.545 21.805 22.472 32.263 6.703 8.844 15.992 13.405 25.866 13.906 15.297.779 30.343-.139 45.223-1.919 1.14-.139 2.197-.612 2.586-.723-7.203-7.982-14.573-15.686-21.193-24.169Z" class="st0"/></g><g class="fills"><path d="M458.1 478.096c-.501.139-.946.306-2.225.751 10.791 3.393 20.803 5.062 30.76 5.201 27.062.417 48.144-15.686 42.136-48.644-3.17-17.772-13.044-31.15-29.286-39.438-11.014-5.563-22.528-7.259-33.876-8.872-21.972-3.032-43.832-5.451-65.665-7.092-.723-.056-1.474.027-2.782.083 4.895 3.866 7.871 8.344 8.595 13.739.611 4.589.667 9.262.5 13.823-1.001 25.56-2.141 51.092-3.282 76.624-.472 10.819-.973 21.638-1.613 32.429-.473 7.843-2.809 14.685-10.986 18.273-.083.028 0 .334 0 .473 24.169 4.394 48.366 9.651 73.119 15.269-1.14-1.474-1.974-2.503-2.753-3.56-6.759-8.928-8.9-18.134-8.872-27.34.139-35.683.389-71.311.639-106.967 0-.918.112-1.808.195-2.865 7.343.946 13.823 3.644 19.052 9.568 6.536 7.426 8.371 15.853 8.844 24.614.918 17.466-5.674 29.37-22.5 33.931Z" class="st0"/></g><g class="fills"><path d="M265.999 384.674a2839.614 2839.614 0 0 1-15.686 33.208c15.129-10.763 30.232-13.544 45.695-12.738-.139.946-.222 1.558-.305 2.197-4.506 31.261-9.012 62.551-13.601 93.812-.417 2.892-1.196 5.813-2.141 8.705-1.558 4.728-4.645 8.817-10.152 11.793-.667.361-1.557.472-2.364.723.278.25.556.473.807.723 24.641.139 48.95 1.919 73.564 4.923-.418-.64-.584-.974-.863-1.28-6.814-7.676-9.066-16.047-8.204-24.975 3.087-32.012 6.285-63.997 9.373-95.981.194-1.919 1.279-2.531 3.059-2.587 5.201-.167 10.374-.417 15.547-.194 7.732.333 14.101 3.115 17.605 10.068.056.111.334.139.835.306a3090.696 3090.696 0 0 0 10.179-34.349c-40.856-2.03-81.463-1.168-123.348 5.646Z" class="st0"/></g><g class="fills"><path d="M469.169 602.668c.195 3.171.334 6.397.111 9.512-1.752 23.724-3.448 47.421-5.507 71.089-.5 5.813-1.724 11.626-3.504 17.105-2.392 7.259-9.15 10.402-17.438 9.15-8.038-1.224-14.296-6.564-15.687-14.212-.806-4.283-1.168-8.761-.917-13.044 1.529-26.06 3.254-52.121 5.061-78.153.251-3.533 1.085-6.981 2.003-10.319 1.224-4.45 4.394-7.37 8.677-9.845-20.164-4.256-39.66-8.594-60.047-12.933 6.592 6.452 8.511 13.405 8.455 20.915-.028 2.725-.028 5.451-.139 8.149-1.335 26.144-2.698 52.26-3.977 78.403-.223 4.617-.306 9.29-.028 13.934.64 11.487 5.006 21.333 13.434 29.037 12.766 11.959 36.545 15.63 53.205 5.868 3.171-1.891 6.286-3.838 9.846-5.98-.362 4.617-.668 8.789-1.002 13.017 15.52 2.336 30.733 4.922 46.503 8.204-6.592-6.842-7.76-14.379-7.065-22.277 2.976-34.154 5.952-68.28 9.012-102.434.5-5.535 1.835-10.875 5.785-14.935 1.474-1.502 3.226-2.754 4.95-4.2-19.663-2.809-39.104-6.425-59.213-10.569 4.284 4.562 7.12 9.095 7.482 14.518Z" class="st0"/></g><g class="fills"><path d="M637.963 665.803c11.487-14.24 12.599-40.579 1.78-52.26-8.205-8.844-19.191-10.624-31.261-10.068-22.751.973-45.279.056-67.668-2.392-.695-.083-1.391-.028-2.642-.055 7.009 6.48 8.149 14.128 7.342 22.444-3.365 34.488-6.702 68.975-10.123 103.435-.306 3.171-1.057 6.23-1.808 9.261-1.196 4.784-4.283 7.816-8.121 10.514.723.166 1.418.333 2.141.528 21.555 5.257 42.943 12.043 64.08 20.943 2.976 1.279 6.008 2.225 9.011 3.254 18.468 6.786 38.882-3.254 43.777-36.49 3.56-24.28-2.642-46.113-19.969-55.152-1.502-.807-3.004-1.586-5.09-2.67 7.231-2.17 13.461-5.062 18.551-11.292Zm-55.931-3.588c.668-5.368 1.196-10.736 1.752-16.103.557-5.285 1.224-10.541 1.641-15.826.167-2.03 1.002-2.67 2.782-3.059 10.652-2.475 19.496 5.34 18.578 17.271-.473 6.342-2.225 12.099-6.563 16.521-4.756 4.812-10.291 5.729-16.299 4.255-1.474-.389-2.113-1.279-1.891-3.059Zm20.22 71.728c-6.341 12.099-18.329 9.624-26.144 3.115-.806-.667-1.724-2.308-1.641-3.226 1.586-15.797 3.31-31.539 5.006-47.281.028-.278.195-.528.39-.946 6.508.723 12.905 1.836 18.634 6.091 5.952 4.45 8.4 11.292 8.511 19.135.111 8.261-1.196 16.298-4.756 23.112Z" class="st0"/></g><g class="fills"><path d="M219.079 671.282c-20.192-4.812-36.935-19.691-44.945-38.854-7.426-17.216-7.954-32.652-2.67-47.782 3.477-9.929 11.375-16.715 23.724-18.579 9.929-1.557 19.997-.111 29.704 4.2 5.841 2.614 11.375 6.119 17.244 9.456-.668-10.179-1.335-20.442-2.031-31.15-8.037-1.418-15.825-2.865-23.668-3.699-15.547-1.697-30.789-.695-45.39 3.755-38.799 11.876-52.844 38.075-45.835 62.105 5.785 20.859 22.417 41.107 47.17 59.964 10.485 8.288 21.499 13.656 32.596 17.744 14.852 5.535 29.509 8.9 43.833 8.455.973-.028 2.252-.528 2.558-1.335 3.393-8.844 6.62-17.911 10.235-27.701-2.086.612-3.532 1.057-4.978 1.474-11.987 3.226-24.058 5.118-37.547 1.947Z" class="st0"/></g><g class="fills"><path d="M344.319 695.618c-8.956-1.168-17.912-2.615-26.394-8.316l.083-2.948c.807-32.569 1.641-65.109 2.475-97.678.084-3.337.334-6.675.696-9.984.667-6.369 3.143-11.57 8.26-14.769.362-.222.918-.111 1.391-.139-.223-.278-.473-.584-.696-.862-19.747-3.477-39.549-6.536-60.13-8.984 7.62 6.509 9.456 14.324 9.4 22.612-.25 36.323-.5 72.646-.862 108.969-.028 3.672-.639 7.259-1.307 10.736-.862 4.478-3.699 7.203-7.482 9.707 1.641.389 2.587.611 3.56.834 27.757 6.369 55.57 11.153 83.494 15.464 2.53.389 3.782-.084 4.561-2.837 2.586-9.262 5.507-18.356 8.51-28.091-8.065 5.229-16.409 7.426-25.559 6.286Z" class="st0"/></g><g class="fills"><path d="M517.563 324.516c-.556 5.59 2.864 12.543 7.62 15.491l52.038 32.318c4.811 3.004 13.099 3.31 18.384.64l57.266-29.426c5.228-2.753 9.817-9.706 10.235-15.463l4.338-62.745c.39-5.758-3.142-12.878-7.898-15.798l-51.175-31.345c-4.673-2.836-12.683-2.836-17.828 0l-56.376 30.4c-5.201 2.753-9.929 9.567-10.513 15.157l-6.091 60.771Zm50.285-84.244 25.56-13.684s4.06-1.808 4.06 1.919l.111 4.255s-.111 3.505-4.005 4.45l-25.17 5.34s-1.863.529-1.975-.5c-.083-1.057 1.419-1.78 1.419-1.78Zm-29.481 18.69 45.056-9.318s1.78-.278 2.642.473c.528.445.779 1.307-.083 2.615l-35.406 52.148c-1.14 1.53-2.002 1.585-2.781 1.474-1.78-.25-1.919-1.836-1.919-1.836l-10.513-40.94c-.695-3.754 3.004-4.616 3.004-4.616Z" class="st0"/></g><g class="fills"><path d="m176.665 528.882 46.948-29.593c4.255-2.697 7.759-8.9 7.759-13.767v-52.816c0-4.867-3.393-10.596-7.509-12.766l-44.472-23.613c-4.033-2.169-10.736-1.752-14.88.946l-45.696 29.398c-4.255 2.698-7.927 8.928-8.149 13.823l-2.475 53.177c-.223 4.895 2.976 10.652 7.12 12.822l45.696 23.418c4.255 2.197 11.291 1.697 15.658-1.029ZM146.6 417.548l20.692-13.183s3.31-1.78 3.477 1.419l.306 3.615s.083 3.004-3.115 4.033l-20.804 6.035s-1.53.557-1.669-.305c-.111-.918 1.113-1.614 1.113-1.614Zm-13.712 58.212c-1.502-.083-1.696-1.446-1.696-1.446l-10.708-34.655c-.751-3.198 2.308-4.199 2.308-4.199l37.325-10.792s1.474-.333 2.252.223c.445.334.696 1.085.084 2.253l-27.229 47.142c-.973 1.391-1.696 1.502-2.336 1.474Z" class="st0"/></g><g class="fills"><path d="M650.924 610.4h2.809v8.205h1.196V610.4h2.837v-1.001h-6.842Z" class="st0"/></g><g class="fills"><path d="m665.859 609.399-1.641 4.45c-.417 1.168-.751 2.169-.973 3.115h-.028c-.223-.946-.556-1.975-.918-3.115l-1.585-4.45h-1.53l-.64 9.234h1.141l.25-3.95c.083-1.39.139-2.92.167-4.088h.028c.25 1.085.639 2.281 1.057 3.588l1.501 4.394h.89l1.641-4.478c.473-1.279.863-2.419 1.168-3.504h.028c-.028 1.14.056 2.698.139 3.977l.223 4.061h1.168l-.584-9.234h-1.502Z" class="st0"/></g></g></g></svg>