<svg xmlns="http://www.w3.org/2000/svg" width="387" height="338" fill="none" style="-webkit-print-color-adjust:exact" viewBox="0 0 387 338"><g xmlns:xlink="http://www.w3.org/1999/xlink" xml:space="preserve" style="fill:#000"><g style="fill:#000"><path d="m20.814 5.726-7.415-4.281c-.682-.394-1.796-.394-2.478 0L3.506 5.726c-.682.394-1.239 1.36-1.239 2.146v8.562c0 .787.557 1.752 1.239 2.146l7.415 4.281c.682.394 1.796.394 2.478 0l7.415-4.281c.681-.394 1.239-1.36 1.239-2.146V7.873c-.001-.787-.558-1.753-1.239-2.147Zm-10.11.522-4.208 7.334c-.137.215-.253.227-.36.214-.244-.029-.286-.25-.286-.25L3.875 7.833c-.148-.526.349-.653.349-.653l6.087-1.357s.244-.039.372.062c.077.059.121.181.021.363Zm.867-2.164-3.415.761s-.25.076-.279-.068c-.029-.144.173-.245.173-.245l3.37-1.92s.543-.251.586.266l.066.589c0-.001.028.485-.501.617Z" class="fills" style="fill:#00f"/></g></g></svg>