<?xml version="1.0" encoding="UTF-8" standalone="no"?>
<!-- Created with Inkscape (http://www.inkscape.org/) -->

<svg
   version="1.1"
   id="svg2"
   width="720"
   height="216"
   viewBox="0 0 720 216"
   sodipodi:docname="Pathfinder.svg"
   inkscape:version="1.2.2 (1:1.2.2+202212051550+b0a8486541)"
   xmlns:inkscape="http://www.inkscape.org/namespaces/inkscape"
   xmlns:sodipodi="http://sodipodi.sourceforge.net/DTD/sodipodi-0.dtd"
   xmlns="http://www.w3.org/2000/svg"
   xmlns:svg="http://www.w3.org/2000/svg">
  <defs
     id="defs6" />
  <sodipodi:namedview
     id="namedview4"
     pagecolor="#ffffff"
     bordercolor="#111111"
     borderopacity="1"
     inkscape:showpageshadow="0"
     inkscape:pageopacity="0"
     inkscape:pagecheckerboard="1"
     inkscape:deskcolor="#d1d1d1"
     showgrid="false"
     inkscape:zoom="2"
     inkscape:cx="577.25"
     inkscape:cy="113.25"
     inkscape:window-width="1920"
     inkscape:window-height="1145"
     inkscape:window-x="0"
     inkscape:window-y="31"
     inkscape:window-maximized="1"
     inkscape:current-layer="g10">
    <inkscape:page
       x="0"
       y="0"
       id="page8"
       width="720"
       height="216" />
  </sodipodi:namedview>
  <g
     id="g10"
     inkscape:groupmode="layer"
     inkscape:label="Page 1"
     transform="matrix(1.3333333,0,0,-1.3333333,0,216)">
    <path
       id="path48"
       style="fill:#ff2aff;fill-opacity:1;fill-rule:nonzero;stroke:none"
       d="M 38.595704 149.93995 C 34.833708 149.93995 31.179904 148.42599 28.253907 145.667 C 26.524909 144.1 25.415504 142.49083 24.666505 141.40284 C 24.547505 141.22984 24.429223 141.05275 24.303223 140.88575 L 24.259278 140.82715 L 24.216797 140.76856 C 21.9608 137.69956 18.613582 134.79879 14.475586 131.3628 C 9.0625917 127.3378 8.458008 121.89095 8.458008 119.66895 C 8.458008 115.38795 10.334983 112.27021 12.604981 109.76221 L 12.4292 109.69043 L 4.3652345 106.33741 L 4.3652345 97.604006 L 4.3652345 93.241702 L 4.3652345 73.475099 L 18.28711 79.376955 C 18.638109 75.504959 18.978431 71.647842 19.31543 67.839845 C 19.38943 67.001846 19.464551 66.159454 19.539551 65.314455 L 19.341797 65.156252 C 17.582799 63.755253 16.476523 62.369298 15.811524 61.529298 C 15.534524 61.258299 14.896867 60.711845 14.463868 60.339845 C 12.677869 58.812847 10.456428 56.910698 8.8154299 54.241701 L 5.2060548 48.372072 L 8.0024416 42.074708 C 9.4874401 38.729711 11.948807 36.589605 13.924805 34.870606 C 14.041805 34.768606 14.183848 34.645368 14.318848 34.526368 C 15.209847 33.252369 16.455979 31.642937 18.125977 30.210938 C 18.437977 24.302944 22.252317 21.053712 25.945313 17.907715 C 26.016313 17.846715 26.084856 17.788934 26.151856 17.731934 C 27.861854 15.501936 31.833711 10.773926 38.595704 10.773926 C 45.303697 10.773926 49.264538 15.422272 50.998536 17.67627 C 51.073536 17.73927 51.152912 17.804094 51.232911 17.871094 C 54.854908 20.871091 58.943592 24.256937 59.204591 30.37793 C 60.75059 31.746929 61.876975 33.216881 62.646974 34.27588 C 62.803974 34.41588 62.97626 34.565036 63.114259 34.686036 C 65.150257 36.472034 67.685109 38.696133 69.183107 42.05713 L 71.172365 46.520509 C 71.848973 46.609534 72.516718 46.721826 73.179201 46.845704 L 72.830568 45.812989 L 83.572268 40.904298 L 85.025393 40.239259 L 89.87842 38.02295 L 94.89844 39.829103 L 108.82617 44.838868 L 108.82617 40.905763 L 121.91602 40.905763 L 141.60791 40.905763 L 146.15039 40.905763 L 149.71143 40.905763 L 165.44239 40.905763 L 173.53711 40.905763 L 180.01758 40.905763 L 199.3125 40.905763 L 207.40723 40.905763 L 209.48731 40.905763 L 228.64893 40.905763 L 237.30323 40.905763 L 241.73731 40.905763 L 256.59669 40.905763 L 264.68848 40.905763 L 264.7251 40.98047 L 270.29591 40.98047 L 270.29591 40.905763 L 283.38428 40.905763 L 302.54591 40.905763 L 307.03419 40.905763 L 310.07374 40.905763 L 326.32764 40.905763 L 334.41212 40.905763 L 337.56007 40.905763 L 354.21241 40.905763 L 359.69972 40.905763 L 363.82325 40.905763 L 375.29298 40.905763 C 378.79297 40.905763 384.1412 41.297019 389.7422 43.166017 L 389.80812 43.187989 L 389.87403 43.211427 C 397.08262 45.703193 403.38683 49.853494 408.43653 55.148439 C 409.61374 53.679595 410.84518 52.308502 412.13673 51.052736 C 419.58672 43.807743 429.10455 39.978517 439.66554 39.978517 C 443.03953 39.978517 447.01502 40.256596 451.33302 41.683595 L 454.29347 38.263185 L 460.27736 38.263185 L 461.86378 38.263185 L 474.95216 38.263185 L 474.95216 40.905763 L 492.96681 40.905763 L 500.48585 40.905763 L 503.41847 45.934571 C 507.26547 43.151574 509.94525 41.389802 510.24025 41.195802 L 516.54786 37.063477 L 523.28615 40.447267 L 524.6089 41.110841 L 536.99708 47.333497 L 530.0757 59.345216 L 524.35255 69.272463 C 529.83555 74.205458 533.27785 81.288541 533.27785 89.144533 C 533.27785 95.514193 531.1346 101.50842 527.84035 106.60987 C 528.67472 106.16237 529.63027 105.90674 530.64552 105.90674 C 533.90352 105.90674 536.54738 108.52733 536.54738 111.75733 C 536.54738 114.98732 533.90352 117.60791 530.64552 117.60791 C 527.38552 117.60791 524.7422 114.98732 524.7422 111.75733 C 524.7422 111.37305 524.78066 110.99741 524.85206 110.63379 C 520.96641 115.23534 516.19572 118.78711 511.54982 120.7544 L 505.50294 123.31641 L 499.834 119.99854 L 498.25197 119.07422 L 498.15382 119.01563 L 488.42286 119.01563 L 487.43849 130.80762 L 470.67189 123.46875 L 468.55665 122.54297 L 466.53956 121.65967 L 461.86378 121.65967 L 460.27736 121.65967 L 454.22169 121.65967 L 451.20558 118.10889 C 447.66258 119.26489 443.87353 119.81104 439.66554 119.81104 C 430.58688 119.81104 422.27487 116.95297 415.37403 111.51709 C 414.50384 113.06635 413.54959 114.57922 412.50294 116.04492 L 409.84425 119.76856 L 405.44386 121.02539 L 403.59669 121.55274 L 390.60206 125.26172 L 389.03321 119.01563 L 360.36183 119.01563 L 353.24122 119.01563 L 347.30421 124.69776 L 338.86817 120.01172 L 337.0752 119.01563 L 325.00636 119.01563 L 314.4463 119.01563 L 314.4463 119.01709 L 301.35792 119.01709 L 285.78956 119.01709 L 277.20118 126.4541 L 271.25977 119.01709 L 240.37061 119.01709 L 236.19581 127.35498 L 225.07178 123.00586 C 219.77879 120.93686 214.52694 119.56309 209.83594 119.01709 L 197.99122 119.01709 L 183.12159 119.01709 L 182.77002 120.14502 L 177.3003 122.54151 L 175.18799 123.46729 L 158.90039 130.60254 L 157.60694 119.01709 L 150.58155 119.01709 L 146.23682 120.81006 L 143.98828 121.73291 L 131.54737 126.84522 L 128.57666 119.01709 L 125.74951 119.01709 L 100.11328 119.01709 L 92.015627 119.01709 L 90.640139 116.25879 C 89.513523 118.1927 88.817873 119.73329 88.817873 120.9917 L 88.817873 121.78418 L 88.817873 141.36475 L 70.724123 133.8794 L 63.174318 130.75489 C 62.280319 131.56489 61.391161 132.35147 60.514162 133.12647 C 57.518165 135.77447 54.930597 138.06067 53.037599 140.68067 L 52.904298 140.8667 L 52.848634 140.93848 C 52.780634 141.03748 52.709767 141.14535 52.634767 141.25635 C 51.043769 143.63135 46.818696 149.93995 38.595704 149.93995 z M 270.29591 52.13379 L 270.29591 51.928712 L 270.19337 51.928712 L 270.29591 52.13379 z " />
    <path
       id="path140"
       style="fill:#000000;fill-opacity:1;fill-rule:nonzero;stroke:none"
       d="M 38.595704 145.57764 C 36.701706 145.57764 33.905029 145.02806 31.207032 142.45606 C 29.839033 141.22106 28.931301 139.90471 28.258301 138.92871 C 28.105302 138.70571 27.953016 138.47921 27.791016 138.26221 L 27.761719 138.22412 L 27.732423 138.18457 C 25.168425 134.69558 21.5825 131.5898 17.166504 127.92481 C 13.399508 125.17281 12.820313 121.59995 12.820313 119.66895 C 12.820313 115.15195 15.873961 112.44178 19.105958 109.57178 C 19.371957 109.33578 19.603673 109.13291 19.763672 108.98291 C 19.883672 108.84691 19.977782 108.53984 20.050782 108.13184 L 14.103516 105.66065 L 8.7275393 103.42676 L 8.7275393 97.604006 L 8.7275393 93.241702 L 8.7275393 80.063967 L 20.859376 85.208498 L 22.08252 85.727053 C 22.63252 79.860059 23.152622 73.983629 23.661622 68.223635 C 23.803622 66.614636 23.947286 64.993281 24.092286 63.363283 L 22.060547 61.743166 C 20.675549 60.640167 19.829426 59.573899 19.211426 58.7959 L 19.08545 58.637697 C 18.83445 58.339697 17.911805 57.549368 17.299805 57.026369 C 15.665807 55.62837 13.812272 54.043007 12.530274 51.958009 L 10.125 48.043947 L 11.989746 43.844239 C 13.081745 41.385242 14.966576 39.747109 16.788575 38.16211 C 17.038574 37.945111 17.378282 37.649548 17.613282 37.435548 C 18.652281 35.909549 20.25578 33.766371 22.571778 32.380372 C 22.504778 31.942372 22.469239 31.482489 22.469239 31.000489 C 22.469239 26.601493 25.25093 24.230513 28.773927 21.228516 C 28.982926 21.050516 29.176356 20.886582 29.339356 20.746583 C 30.718355 18.923584 33.585709 15.136231 38.595704 15.136231 C 43.579699 15.136231 46.441616 18.880823 47.828614 20.715821 C 48.008614 20.866821 48.221708 21.042446 48.449708 21.231446 C 52.027705 24.194443 54.85547 26.535494 54.85547 31.000489 C 54.85547 31.511489 54.814677 31.996079 54.742677 32.455079 C 56.939675 33.825078 58.415303 35.862498 59.383302 37.208497 C 59.620302 37.425497 59.978306 37.738821 60.237306 37.965821 C 62.131304 39.62782 64.088733 41.344988 65.198732 43.833985 L 66.999025 47.87256 L 65.465334 50.559083 C 65.670333 50.555083 65.875033 50.553224 66.082033 50.553224 C 71.082734 50.553224 75.81972 51.60426 80.065432 53.585451 L 78.224123 48.145021 L 85.387209 44.87256 L 86.840334 44.208985 L 90.074709 42.729493 L 93.420412 43.933595 L 113.18994 51.046876 L 113.18994 45.266603 L 121.91602 45.266603 L 141.60645 45.266603 L 147.00879 45.266603 L 147.00879 45.268068 L 165.44385 45.268068 L 170.83887 45.268068 L 171.29151 46.174806 L 171.29151 45.266603 L 180.01758 45.266603 L 199.3125 45.266603 L 204.70752 45.266603 L 209.48585 45.266603 L 228.64893 45.266603 L 237.30323 45.266603 L 237.37354 45.266603 L 251.28663 45.266603 L 251.28663 45.106935 L 280.2627 45.106935 L 280.2627 45.266603 L 283.38282 45.266603 L 302.54298 45.266603 L 307.55714 45.266603 L 307.5586 45.268068 L 326.32472 45.268068 L 331.70802 45.268068 L 331.72999 45.313478 L 331.7505 45.268068 L 337.5586 45.268068 L 350.96925 45.268068 L 350.96925 45.266603 L 359.69532 45.266603 L 375.28858 45.266603 C 378.46858 45.266603 383.31639 45.621202 388.35938 47.3042 L 388.40187 47.318849 L 388.44581 47.334962 C 396.74334 50.202337 403.72074 55.494538 408.72511 62.26172 C 417.84614 47.816731 430.04608 44.342286 439.66407 44.342286 C 443.52907 44.342286 447.90448 44.722425 452.62648 46.857423 L 453.67823 45.641603 L 456.28859 42.625489 L 460.27736 42.625489 L 461.85939 42.625489 L 470.58546 42.625489 L 470.58546 45.268068 L 473.80226 45.268068 L 492.96681 45.268068 L 497.98097 45.268068 L 500.5049 49.598146 L 501.43068 51.186036 L 502.09718 52.330079 C 507.82817 48.003084 512.24794 45.093727 512.62794 44.844728 L 516.83351 42.090821 L 521.32618 44.346681 L 522.64894 45.010255 L 530.90919 49.158693 L 526.29201 57.165529 L 518.67189 70.385744 C 524.84388 74.44974 528.91115 81.340076 528.91115 89.143069 C 528.91115 101.82106 519.08912 112.8228 509.84913 116.7378 L 505.82228 118.44434 L 502.04591 116.23828 L 500.45949 115.3125 L 499.33009 114.65332 L 484.39747 114.65332 L 483.542 124.30811 L 472.41798 119.47266 L 470.30421 118.54688 L 467.44777 117.2959 L 461.85939 117.2959 L 460.27736 117.2959 L 456.23878 117.2959 L 453.6255 114.21826 L 452.53419 112.9336 C 448.66719 114.66459 444.53207 115.44727 439.66407 115.44727 C 431.81373 115.44727 422.23198 113.10855 413.99708 104.33789 C 412.69764 107.54772 411.01281 110.62289 408.95362 113.50782 L 407.1797 115.99366 L 404.24269 116.83155 L 402.39112 117.35889 L 393.72657 119.82569 L 392.42872 114.65332 L 360.35743 114.65332 L 351.63136 114.65332 L 351.63136 114.49366 C 351.50539 114.61869 351.38562 114.75216 351.25782 114.87451 L 346.60841 119.32178 L 340.98341 116.19727 L 333.7295 112.16748 L 333.7295 114.65332 L 325.00343 114.65332 L 310.08253 114.65332 L 305.8418 114.65332 L 301.35499 114.65332 L 284.16358 114.65332 L 277.78858 120.17285 L 273.36329 114.65332 L 237.6753 114.65332 L 237.64014 114.72217 L 234.07618 121.84278 L 226.65967 118.94385 C 220.77068 116.64085 214.89216 115.14091 209.66016 114.60791 L 206.71876 114.30762 L 206.71876 114.65332 L 197.99268 114.65332 L 179.91065 114.65332 L 179.19727 116.94727 L 175.55127 118.54395 L 173.43604 119.47119 L 162.57862 124.22754 L 161.50928 114.65332 L 149.70557 114.65332 L 144.57862 116.77295 L 142.33008 117.69727 L 134.03614 121.10596 L 131.58838 114.65332 L 125.74951 114.65332 L 100.11328 114.65332 L 94.71387 114.65332 L 92.305666 109.82227 L 91.514651 108.23584 L 91.086916 107.37891 C 90.529076 108.26054 89.974671 109.11553 89.437502 109.93946 C 86.348505 114.67845 84.455569 117.74771 84.455569 120.9917 L 84.455569 121.78418 L 84.455569 134.83887 L 72.39258 129.84668 L 62.097658 125.58838 C 61.659658 126.16438 61.131583 126.736 60.496584 127.292 L 60.48633 127.30225 L 60.323732 127.44873 C 59.417733 128.27373 58.516489 129.06994 57.62549 129.85694 C 54.435493 132.67693 51.679464 135.11245 49.501466 138.12744 L 49.413575 138.25049 L 49.318361 138.36914 C 49.239361 138.47914 49.130278 138.64911 49.009279 138.82911 C 47.65728 140.8481 44.489698 145.57764 38.595704 145.57764 z " />
    <path
       d="m 52.7363,44.1816 c -0.531,-0.666 -2.115,-3.174 -3.039,-3.174 -0.795,0 -2.379,2.641 -2.908,3.174 -1.323,1.32 -2.776,2.377 -3.965,3.564 -0.66,-3.039 -1.057,-6.078 -1.057,-9.115 0,-3.832 4.362,-5.551 4.362,-6.345 0,-0.528 -3.965,-3.569 -4.625,-4.227 -0.532,-0.531 -1.983,-2.91 -2.909,-2.91 -0.923,0 -2.377,2.379 -2.908,2.91 -0.66,0.658 -4.492,3.699 -4.492,4.227 0,0.927 4.228,2.376 4.228,6.345 0,3.172 -0.66,6.209 -0.923,9.248 -1.19,-1.32 -2.776,-2.377 -3.965,-3.697 -0.529,-0.666 -2.246,-3.174 -3.039,-3.174 -0.926,0 -2.51,2.379 -3.039,3.174 -0.926,1.188 -3.965,3.303 -4.492,4.49 1.056,1.719 4.359,3.834 5.947,5.815 0.527,0.662 0.922,1.189 1.584,1.716 0.793,-0.263 1.056,-1.054 1.584,-1.716 1.455,-1.85 3.437,-3.436 5.154,-4.889 -1.584,16.518 -2.906,33.434 -4.625,50.084 l -12.156,-5.154 v 4.362 l 11.76,4.886 c -0.395,4.627 0.132,9.254 -3.301,12.688 -0.795,0.793 -4.365,3.699 -4.365,4.492 0,0.662 0.531,1.059 0.927,1.322 4.623,3.832 8.987,7.531 12.289,12.026 0.795,1.056 1.455,2.246 2.379,3.039 0.397,0.396 0.926,0.795 1.453,0.795 1.586,0 2.909,-2.645 3.832,-3.834 3.436,-4.756 7.664,-8.061 12.028,-12.026 0.392,-0.394 0.924,-0.66 0.924,-1.322 0,-0.66 -3.438,-3.566 -4.231,-4.229 -1.98,-1.847 -1.85,-2.115 -2.246,-4.755 l 26.826,11.099 v -0.793 c 0,-12.816 14.139,-19.955 14.139,-36.472 0,-13.874 -9.25,-25.241 -23.785,-25.241 -8.854,0 -16.121,5.156 -16.121,14.535 0,5.95 5.023,11.499 11.099,11.499 2.778,0 5.551,-2.379 5.551,-5.284 0,-2.647 -2.248,-4.627 -4.889,-4.627 -2.511,0 -4.361,1.98 -4.627,4.362 -2.248,-0.926 -3.041,-3.702 -3.041,-5.95 0,-6.076 4.891,-10.568 10.707,-10.568 6.739,0 11.758,5.546 11.758,12.552 0,17.181 -13.609,21.407 -15.195,35.811 l -12.686,-5.152 c -1.982,-19.426 -3.302,-38.719 -5.681,-58.145 1.849,1.453 3.699,3.039 5.152,4.889 0.529,0.662 0.926,1.189 1.588,1.716 0.66,-0.128 1.189,-1.322 1.586,-1.716 1.584,-1.981 4.889,-3.963 5.945,-5.815 -0.529,-1.187 -3.435,-3.302 -4.492,-4.49 z"
       style="fill:#ff2aff;stroke:#000000;stroke-width:1.091;stroke-linecap:butt;stroke-linejoin:miter;stroke-miterlimit:8;stroke-dasharray:none;stroke-opacity:1;fill-opacity:1"
       id="path228" />
    <path
       d="m 114.3848,96.2466 -8.723,-28.014 h 17.313 z m 27.223,-40.967 h -19.692 v 1.982 c 0.926,0 3.834,0.399 3.834,1.719 0,0.66 -1.586,5.551 -1.851,6.476 l -33.432,-12.027 -1.453,0.664 15.064,44.53 c 0.528,1.453 -3.173,5.551 -4.756,7.004 l 0.792,1.586 h 25.636 v -1.985 c -1.322,0 -3.172,-1.32 -2.775,-2.507 l 13.346,-39.778 c 0.925,-2.776 3.568,-4.891 6.078,-6.076 z"
       style="fill:#ff2aff;stroke:#000000;stroke-width:1.091;stroke-linecap:butt;stroke-linejoin:miter;stroke-miterlimit:8;stroke-dasharray:none;stroke-opacity:1;fill-opacity:1"
       id="path236" />
    <path
       d="m 160.5527,97.8325 v -34.889 c 0,-1.983 4.098,-5.153 5.684,-6.076 l -0.793,-1.588 h -19.293 v 1.982 c 1.189,0 3.568,0.529 3.568,2.117 v 33.298 l 8.322,5.156 h -15.988 c -1.984,0 -5.154,-0.268 -7.004,-0.926 l -1.455,1.453 c 2.248,2.774 3.965,8.719 5.42,12.553 l 2.248,-0.924 c -0.133,-0.398 -0.266,-0.793 -0.266,-1.058 0,-0.66 0.528,-1.717 1.321,-1.717 h 24.715 c 1.98,0 2.771,4.361 2.904,5.551 l 2.113,-0.926 4.363,-14.006 z"
       style="fill:#ff2aff;stroke:#000000;stroke-width:1.091;stroke-linecap:butt;stroke-linejoin:miter;stroke-miterlimit:8;stroke-dasharray:none;stroke-opacity:1;fill-opacity:1"
       id="path244" />
    <path
       d="m 183.5859,99.5493 c 0,1.85 -4.098,5.021 -5.682,6.078 l 0.926,1.586 h 19.162 v -2.113 c -1.324,0 -3.57,-0.397 -3.57,-2.115 v -18.502 c 4.627,0 8.195,7.796 9.912,7.796 1.588,0 5.285,-7.796 9.779,-7.796 v 18.502 c 0,1.718 -2.113,2.115 -3.568,2.115 v 2.113 c 6.477,0.66 13.213,2.512 19.293,4.889 l 0.793,-1.584 c -1.453,-1.455 -5.549,-5.551 -5.549,-7.533 v -43.606 c 0,-1.588 2.246,-2.118 3.567,-2.118 v -1.982 h -19.163 l -0.923,1.588 c 1.586,0.924 5.55,4.094 5.55,6.076 v 16.916 c -4.095,0 -8.06,-7.664 -9.779,-7.664 -1.717,0 -5.551,7.664 -9.912,7.664 v -16.916 c 0,-1.982 4.098,-5.152 5.684,-6.076 l -0.793,-1.588 h -19.295 v 1.982 c 1.191,0 3.568,0.53 3.568,2.118 z"
       style="fill:#ff2aff;stroke:#000000;stroke-width:1.091;stroke-linecap:butt;stroke-linejoin:miter;stroke-miterlimit:8;stroke-dasharray:none;stroke-opacity:1;fill-opacity:1"
       id="path252" />
    <path
       d="m 265.0527,97.8325 h -13.215 v -18.106 l 12.026,13.215 c 0.658,0.791 2.115,2.776 2.115,3.7 0,0.527 -0.399,1.191 -0.926,1.191 z m -2.643,-12.291 c 0,0 1.586,-2.115 2.377,-2.908 1.192,-1.19 2.514,-2.246 3.967,-3.301 0.129,-0.133 0.264,-0.532 0.264,-0.795 0,-0.264 -0.135,-0.528 -0.264,-0.661 -1.851,-1.453 -3.701,-2.91 -5.154,-4.627 -0.926,-1.054 -1.852,-2.244 -2.908,-3.3 -0.264,-0.266 -0.395,-0.266 -0.662,-0.266 -0.393,0 -0.526,0 -0.791,0.266 -0.926,1.056 -1.717,2.246 -2.776,3.3 -1.455,1.588 -3.037,2.911 -4.625,4.231 v -14.537 c 0,-1.983 4.098,-5.153 5.551,-6.076 l -0.793,-1.588 h -19.293 v 1.982 c 1.451,0 3.699,0.529 3.699,2.117 v 33.298 l 8.194,5.156 h -11.498 c -2.907,0 -5.682,-2.514 -7.135,-4.76 l -2.114,0.924 5.155,10.441 c 0.394,0.663 0.527,1.983 0.263,2.776 h 40.04 c 1.716,0 3.962,0.396 5.021,1.717 l 1.982,-1.717 z"
       style="fill:#ff2aff;stroke:#000000;stroke-width:1.091;stroke-linecap:butt;stroke-linejoin:miter;stroke-miterlimit:8;stroke-dasharray:none;stroke-opacity:1;fill-opacity:1"
       id="path260" />
    <path
       d="m 286.9492,99.6821 c 0,1.848 -4.229,5.152 -5.682,5.945 l 0.926,1.586 h 19.162 v -1.984 c -1.189,0 -3.568,-0.395 -3.568,-2.244 v -40.042 c 0,-1.982 4.226,-5.152 5.682,-6.076 l -0.926,-1.588 h -19.16 v 1.983 c 1.189,0 3.566,0.529 3.566,2.117 z"
       style="fill:#ff2aff;stroke:#000000;stroke-width:1.091;stroke-linecap:butt;stroke-linejoin:miter;stroke-miterlimit:8;stroke-dasharray:none;stroke-opacity:1;fill-opacity:1"
       id="path268" />
    <path
       d="m 336.8945,56.8672 c 4.627,5.283 6.613,12.553 6.613,19.557 0,8.192 -2.646,17.047 -8.461,22.86 l -13.609,-7.665 v -28.676 c 0,-2.113 4.098,-5.019 5.684,-6.076 l -0.797,-1.588 h -19.289 v 1.983 c 1.185,0 3.564,0.529 3.564,2.117 v 40.303 c 0,1.98 -4.098,4.889 -5.682,6.076 l 0.924,1.455 h 19.162 v -1.984 c -1.187,0 -3.566,-0.395 -3.566,-2.244 v -6.344 l 23.785,13.215 c 6.213,-5.947 8.856,-15.461 8.856,-23.785 0,-7.27 -3.174,-15.727 -7.272,-21.54 h 10.307 l -2.903,-9.252 h -16.652 z"
       style="fill:#ff2aff;stroke:#000000;stroke-width:1.091;stroke-linecap:butt;stroke-linejoin:miter;stroke-miterlimit:8;stroke-dasharray:none;stroke-opacity:1;fill-opacity:1"
       id="path276" />
    <path
       d="m 374.2305,97.8325 v -34.36 c 0,-2.113 1.322,-3.963 3.568,-3.963 11.364,0 19.164,14.801 19.164,27.089 0,4.359 -1.058,9.119 -2.515,11.234 z m -14.535,-42.553 v 1.982 c 1.32,0 3.701,0.529 3.701,2.117 v 41.89 c 0,1.982 -1.322,3.699 -3.039,4.226 v 1.719 h 34.09 c 2.252,0 4.89,0.396 5.553,3.039 l 1.851,-0.527 c 4.621,-6.475 6.606,-13.612 6.606,-20.485 0,-14.008 -8.723,-27.487 -22.862,-32.373 -3.568,-1.192 -7.265,-1.588 -10.306,-1.588 z"
       style="fill:#ff2aff;stroke:#000000;stroke-width:1.091;stroke-linecap:butt;stroke-linejoin:miter;stroke-miterlimit:8;stroke-dasharray:none;stroke-opacity:1;fill-opacity:1"
       id="path284" />
    <path
       d="m 425.3887,76.1602 c 1.322,-8.457 6.873,-17.18 16.252,-17.18 9.516,0 15.332,8.588 16.519,17.18 z m 16.252,27.09 c -9.379,0 -14.93,-8.59 -16.252,-17.048 h 32.771 c -1.187,8.589 -7.003,17.048 -16.519,17.048 z m 25.902,-23.654 c 0,-0.663 0.133,-1.454 1.059,-1.852 l -1.85,-1.584 h -4.892 v -23.523 h -1.582 l -5.948,6.873 c -5.023,-4.231 -9.384,-5.157 -14.666,-5.157 -15.066,0 -24.187,10.705 -29.472,26.829 5.285,15.986 14.406,26.826 29.472,26.826 5.282,0 9.643,-1.06 14.666,-5.156 l 5.948,7.004 h 1.582 v -23.654 c 2.775,0.263 4.099,1.189 6.742,3.568 l 1.717,-0.793 c -0.662,-1.852 -2.776,-8.457 -2.776,-9.381 z"
       style="fill:#ff2aff;stroke:#000000;stroke-width:1.091;stroke-linecap:butt;stroke-linejoin:miter;stroke-miterlimit:8;stroke-dasharray:none;stroke-opacity:1;fill-opacity:1"
       id="path292" />
    <path
       d="m 498.9121,79.5957 c 4.492,0 10.043,2.377 10.043,8.061 0,7.795 -7.928,10.176 -13.481,10.176 h -7.269 v -14.539 c 2.381,-2.244 6.609,-3.698 10.707,-3.698 z m 6.875,-3.041 12.945,-22.461 -1.322,-0.664 c 0,0 -18.764,12.291 -29.205,24.184 v -14.67 c 0,-1.983 4.1,-5.153 5.687,-6.077 l -0.925,-1.587 h -19.164 v 1.982 c 1.193,0 3.57,0.529 3.57,2.117 v 33.298 l 8.189,5.156 h -16.117 l 4.358,14.006 2.115,0.925 c 0.135,-1.587 0.928,-5.55 2.906,-5.55 h 26.565 c 0,0.66 -0.133,1.322 -0.53,1.849 l 1.586,0.926 c 6.869,-2.91 13.74,-11.232 13.74,-19.559 0,-7.796 -6.474,-13.875 -14.398,-13.875 z"
       style="fill:#ff2aff;stroke:#000000;stroke-width:1.091;stroke-linecap:butt;stroke-linejoin:miter;stroke-miterlimit:8;stroke-dasharray:none;stroke-opacity:1;fill-opacity:1"
       id="path300" />
    <path
       d="m 530.5322,113.2974 h -0.286 v -0.949 h 0.272 c 0.624,0 0.729,0.208 0.729,0.52 0,0.26 -0.156,0.429 -0.715,0.429 m 0.624,-3.458 c -0.352,0.676 -0.611,1.261 -0.793,1.65 h -0.117 v -1.65 h -0.962 v 4.277 c 0.546,0.039 0.948,0.065 1.339,0.065 0.857,0 1.664,-0.351 1.664,-1.326 0,-0.559 -0.352,-1.014 -0.807,-1.209 0.365,-0.754 0.521,-1.001 0.989,-1.807 z m -0.364,4.914 c -1.561,0 -2.822,-1.235 -2.822,-2.782 0,-1.534 1.249,-2.808 2.809,-2.808 1.56,0 2.82,1.261 2.82,2.808 0,1.547 -1.248,2.782 -2.807,2.782 m 0.012,-6.617 c -2.131,0 -3.874,1.703 -3.874,3.822 0,2.106 1.743,3.822 3.874,3.822 2.12,0 3.835,-1.703 3.835,-3.822 0,-2.106 -1.703,-3.822 -3.835,-3.822"
       style="fill:#ff2aff;fill-opacity:0;fill-rule:nonzero;stroke:none"
       id="path310" />
  </g>
</svg>
